<svg width="330" height="293" viewBox="0 0 330 293" fill="none" xmlns="http://www.w3.org/2000/svg">
<g filter="url(#filter0_d_1_49)">
<g filter="url(#filter1_b_1_49)">
<g filter="url(#filter2_b_1_49)">
<rect width="224.2" height="145.071" rx="10" transform="matrix(0.938191 -0.346117 -0.285354 0.958422 70.3965 85.6016)" fill="url(#paint0_linear_1_49)" fill-opacity="0.88"/>
</g>
<path d="M81.4917 128.886L80.5874 131.923L79.0152 132.503L79.9195 129.466L81.4917 128.886ZM76.2945 145.77L75.4699 148.539L73.8977 149.119L74.7223 146.35L76.2945 145.77ZM78.4085 141.984C78.525 141.592 78.5536 141.286 78.4942 141.063C78.4416 140.838 78.2924 140.676 78.0467 140.577C77.8077 140.476 77.4592 140.422 77.0011 140.413C76.2298 140.392 75.5688 140.312 75.0181 140.173C74.4761 140.025 74.1062 139.731 73.9083 139.291C73.7125 138.844 73.7474 138.174 74.0131 137.282C74.2665 136.43 74.6844 135.62 75.2667 134.849C75.8491 134.078 76.5397 133.395 77.3386 132.801C78.1463 132.198 79.0171 131.724 79.951 131.379C80.6632 131.117 81.2755 130.988 81.7879 130.995C82.3024 130.994 82.7056 131.127 82.9975 131.392C83.2914 131.65 83.4604 132.037 83.5043 132.552C83.5482 133.067 83.4558 133.709 83.2269 134.478L80.3344 135.545C80.457 135.133 80.5217 134.786 80.5283 134.502C80.535 134.219 80.486 134.002 80.3814 133.851C80.2835 133.697 80.1357 133.611 79.9379 133.593C79.7421 133.567 79.5065 133.605 79.231 133.707C78.8212 133.858 78.4607 134.064 78.1497 134.326C77.8386 134.587 77.5807 134.881 77.3759 135.207C77.18 135.524 77.0289 135.86 76.9226 136.217C76.8184 136.567 76.7879 136.851 76.8312 137.067C76.8812 137.28 77.028 137.44 77.2717 137.546C77.5174 137.645 77.8753 137.708 78.3454 137.736C79.1167 137.757 79.7723 137.845 80.3122 138C80.8521 138.156 81.221 138.453 81.4189 138.893C81.6167 139.334 81.5828 140 81.3172 140.892C81.0536 141.778 80.6272 142.607 80.0381 143.38C79.4511 144.147 78.7457 144.829 77.922 145.426C77.1003 146.016 76.2124 146.487 75.2583 146.839C74.6402 147.067 74.05 147.212 73.4876 147.272C72.9273 147.326 72.4547 147.256 72.0699 147.062C71.6851 146.868 71.4379 146.513 71.3282 145.998C71.2206 145.476 71.3037 144.754 71.5775 143.835L74.4801 142.764C74.3309 143.265 74.2701 143.66 74.2976 143.949C74.3271 144.232 74.4164 144.434 74.5655 144.556C74.7232 144.669 74.9243 144.717 75.1685 144.7C75.4127 144.684 75.6726 144.624 75.948 144.523C76.378 144.364 76.7543 144.155 77.0768 143.895C77.4059 143.634 77.682 143.339 77.9048 143.013C78.1364 142.677 78.3043 142.334 78.4085 141.984ZM99.2027 132.828L98.5099 135.154L87.9378 139.055L88.3332 137.305L97.4026 125.133L99.7105 124.282L95.939 129.477L91.3719 135.717L99.2027 132.828ZM100.335 124.052L95.8722 139.042L92.9697 140.113L97.4328 125.122L100.335 124.052ZM111.105 119.941L111.528 119.785L110.823 122.153L110.651 122.216C109.886 122.499 109.169 122.867 108.501 123.321C107.834 123.775 107.228 124.295 106.682 124.881C106.146 125.458 105.677 126.089 105.275 126.775C104.88 127.458 104.571 128.174 104.349 128.922L103.607 131.414C103.447 131.949 103.357 132.404 103.335 132.779C103.322 133.144 103.372 133.428 103.485 133.631C103.607 133.824 103.782 133.94 104.01 133.978C104.24 134.009 104.523 133.963 104.859 133.839C105.174 133.722 105.48 133.548 105.776 133.317C106.079 133.083 106.358 132.809 106.613 132.495C106.877 132.171 107.106 131.824 107.3 131.453C107.503 131.073 107.665 130.68 107.785 130.275C107.906 129.87 107.967 129.515 107.968 129.209C107.977 128.9 107.923 128.657 107.809 128.48C107.696 128.295 107.526 128.184 107.298 128.146C107.07 128.107 106.788 128.15 106.452 128.274C105.996 128.443 105.56 128.701 105.145 129.05C104.739 129.389 104.388 129.763 104.093 130.171C103.799 130.579 103.589 130.971 103.465 131.347L102.76 131.094C102.938 130.558 103.194 130.017 103.53 129.471C103.873 128.924 104.273 128.403 104.731 127.911C105.197 127.409 105.71 126.963 106.268 126.573C106.829 126.177 107.421 125.864 108.046 125.633C108.731 125.381 109.293 125.293 109.731 125.369C110.175 125.444 110.502 125.65 110.713 125.988C110.923 126.326 111.025 126.768 111.018 127.314C111.01 127.861 110.904 128.48 110.697 129.174C110.481 129.901 110.162 130.621 109.741 131.332C109.326 132.041 108.831 132.709 108.255 133.337C107.687 133.962 107.061 134.517 106.379 135.001C105.696 135.485 104.979 135.866 104.226 136.143C103.447 136.431 102.781 136.548 102.228 136.495C101.685 136.433 101.263 136.222 100.964 135.862C100.664 135.502 100.498 135.004 100.466 134.368C100.441 133.73 100.557 132.979 100.815 132.114L101.158 130.961C101.518 129.753 102.018 128.584 102.659 127.456C103.309 126.318 104.069 125.262 104.939 124.287C105.812 123.305 106.768 122.442 107.81 121.697C108.851 120.953 109.949 120.367 111.105 119.941ZM111.647 131.948C111.778 131.509 112.035 131.087 112.419 130.683C112.809 130.276 113.253 129.981 113.75 129.798C114.247 129.614 114.6 129.616 114.807 129.802C115.022 129.985 115.064 130.297 114.933 130.736C114.802 131.175 114.542 131.598 114.151 132.005C113.768 132.409 113.328 132.703 112.83 132.886C112.333 133.07 111.977 133.07 111.763 132.886C111.555 132.7 111.517 132.387 111.647 131.948ZM122.534 121.388L124.086 120.816C124.583 120.632 125.018 120.395 125.392 120.105C125.767 119.807 126.08 119.472 126.328 119.1C126.585 118.718 126.777 118.314 126.904 117.888C127.019 117.504 127.046 117.191 126.986 116.951C126.935 116.701 126.786 116.548 126.539 116.492C126.295 116.43 125.947 116.482 125.497 116.648C125.141 116.779 124.79 116.973 124.445 117.228C124.1 117.484 123.798 117.776 123.539 118.103C123.28 118.431 123.095 118.78 122.984 119.151L120.072 120.225C120.317 119.402 120.746 118.605 121.358 117.836C121.976 117.064 122.703 116.371 123.537 115.758C124.372 115.144 125.229 114.675 126.109 114.351C127.104 113.984 127.925 113.827 128.572 113.882C129.222 113.929 129.661 114.192 129.89 114.67C130.118 115.147 130.094 115.853 129.816 116.787C129.675 117.26 129.43 117.76 129.083 118.285C128.737 118.804 128.309 119.316 127.8 119.821C127.299 120.318 126.732 120.778 126.097 121.201C125.465 121.618 124.792 121.957 124.08 122.22L122.065 122.964L122.534 121.388ZM121.862 123.643L122.319 122.109L124.335 121.366C125.134 121.071 125.809 120.904 126.358 120.866C126.908 120.829 127.335 120.909 127.641 121.108C127.949 121.3 128.136 121.594 128.203 121.991C128.273 122.381 128.223 122.861 128.053 123.431C127.845 124.131 127.528 124.804 127.102 125.449C126.679 126.088 126.172 126.684 125.583 127.238C125 127.789 124.363 128.28 123.672 128.713C122.984 129.138 122.266 129.488 121.52 129.763C120.902 129.991 120.32 130.13 119.773 130.179C119.235 130.218 118.776 130.152 118.396 129.981C118.026 129.8 117.776 129.495 117.646 129.066C117.525 128.628 117.575 128.038 117.796 127.297L120.709 126.223C120.594 126.607 120.586 126.915 120.684 127.148C120.782 127.381 120.971 127.522 121.249 127.572C121.534 127.62 121.881 127.568 122.291 127.417C122.754 127.246 123.176 127.014 123.557 126.721C123.946 126.418 124.275 126.077 124.543 125.697C124.821 125.307 125.023 124.9 125.15 124.474C125.313 123.925 125.346 123.522 125.25 123.264C125.155 123 124.95 122.856 124.634 122.832C124.318 122.807 123.912 122.887 123.414 123.071L121.862 123.643ZM131.525 123.882L131.717 123.811C132.523 123.514 133.244 123.159 133.882 122.747C134.527 122.325 135.096 121.853 135.586 121.33C136.077 120.806 136.496 120.233 136.843 119.61C137.192 118.981 137.473 118.309 137.685 117.595L138.531 114.754C138.693 114.211 138.781 113.754 138.796 113.382C138.818 113.007 138.771 112.722 138.656 112.526C138.55 112.321 138.389 112.197 138.175 112.154C137.967 112.108 137.712 112.141 137.41 112.253C137.087 112.372 136.777 112.56 136.479 112.816C136.184 113.066 135.908 113.36 135.651 113.699C135.402 114.035 135.177 114.399 134.976 114.791C134.785 115.173 134.632 115.557 134.517 115.941C134.403 116.325 134.337 116.676 134.32 116.994C134.305 117.305 134.346 117.562 134.441 117.766C134.538 117.962 134.694 118.091 134.909 118.152C135.126 118.206 135.412 118.168 135.768 118.036C136.111 117.91 136.436 117.732 136.744 117.502C137.06 117.264 137.345 117 137.599 116.711C137.859 116.419 138.079 116.121 138.26 115.816C138.447 115.509 138.581 115.218 138.663 114.943L139.461 115.125C139.318 115.606 139.076 116.117 138.736 116.658C138.395 117.199 137.986 117.728 137.509 118.247C137.041 118.755 136.537 119.21 136 119.61C135.462 120.01 134.924 120.309 134.387 120.507C133.701 120.76 133.131 120.858 132.676 120.799C132.223 120.734 131.879 120.544 131.644 120.227C131.418 119.901 131.302 119.467 131.296 118.926C131.29 118.384 131.393 117.757 131.606 117.043C131.822 116.315 132.14 115.59 132.558 114.867C132.983 114.142 133.484 113.457 134.059 112.811C134.64 112.162 135.275 111.589 135.961 111.092C136.656 110.585 137.377 110.194 138.123 109.919C138.868 109.644 139.503 109.541 140.026 109.61C140.55 109.68 140.949 109.905 141.225 110.286C141.502 110.661 141.647 111.178 141.659 111.84C141.678 112.499 141.552 113.285 141.28 114.197L140.974 115.227C140.684 116.202 140.31 117.146 139.852 118.06C139.401 118.972 138.87 119.843 138.258 120.674C137.654 121.495 136.979 122.258 136.231 122.961C135.49 123.662 134.685 124.286 133.817 124.833C132.948 125.379 132.024 125.833 131.043 126.195L130.811 126.281L131.525 123.882ZM143.377 119.509L143.569 119.439C144.375 119.141 145.096 118.786 145.734 118.374C146.379 117.953 146.948 117.48 147.438 116.957C147.929 116.434 148.348 115.861 148.695 115.238C149.044 114.608 149.325 113.936 149.537 113.223L150.383 110.381C150.545 109.839 150.633 109.382 150.648 109.009C150.67 108.635 150.623 108.35 150.508 108.154C150.402 107.949 150.241 107.825 150.027 107.781C149.819 107.736 149.564 107.769 149.262 107.88C148.939 107.999 148.629 108.187 148.331 108.444C148.036 108.693 147.76 108.987 147.503 109.326C147.254 109.663 147.029 110.027 146.828 110.419C146.637 110.801 146.484 111.184 146.369 111.569C146.255 111.953 146.189 112.304 146.172 112.622C146.157 112.933 146.198 113.19 146.293 113.393C146.39 113.59 146.546 113.718 146.761 113.78C146.978 113.834 147.264 113.795 147.62 113.664C147.963 113.538 148.288 113.36 148.596 113.13C148.912 112.891 149.197 112.627 149.451 112.338C149.711 112.047 149.931 111.748 150.112 111.444C150.299 111.136 150.433 110.845 150.515 110.571L151.313 110.753C151.17 111.233 150.928 111.744 150.588 112.285C150.247 112.826 149.838 113.356 149.361 113.874C148.893 114.383 148.389 114.837 147.852 115.237C147.314 115.637 146.776 115.937 146.239 116.135C145.553 116.388 144.983 116.485 144.528 116.427C144.075 116.362 143.731 116.171 143.496 115.854C143.27 115.528 143.154 115.095 143.148 114.553C143.142 114.012 143.245 113.384 143.458 112.67C143.674 111.943 143.992 111.218 144.41 110.495C144.835 109.77 145.336 109.084 145.911 108.438C146.492 107.79 147.127 107.217 147.813 106.719C148.508 106.212 149.229 105.821 149.974 105.546C150.72 105.271 151.355 105.168 151.878 105.238C152.402 105.307 152.801 105.533 153.077 105.914C153.354 106.288 153.499 106.806 153.511 107.467C153.53 108.126 153.404 108.912 153.132 109.825L152.826 110.855C152.536 111.829 152.162 112.774 151.704 113.688C151.253 114.6 150.722 115.471 150.11 116.302C149.506 117.123 148.831 117.885 148.083 118.589C147.342 119.29 146.537 119.914 145.669 120.46C144.8 121.007 143.876 121.461 142.895 121.823L142.663 121.908L143.377 119.509Z" fill="white"/>
<path d="M65.8072 169.685C65.9464 169.658 66.0453 169.689 66.1038 169.777C66.1624 169.864 66.1681 169.987 66.1209 170.146C66.0783 170.289 66.0056 170.428 65.9028 170.564C65.8033 170.696 65.6794 170.817 65.531 170.926C65.3827 171.036 65.2197 171.123 65.042 171.189L63.9124 171.605L64.7092 168.929L65.79 168.531C65.9676 168.465 66.1114 168.438 66.2215 168.45C66.3341 168.461 66.4074 168.507 66.4412 168.587C66.4776 168.667 66.4759 168.774 66.4364 168.906C66.39 169.062 66.3099 169.208 66.1961 169.343C66.0849 169.478 65.9552 169.591 65.8072 169.685ZM64.9058 169.84L65.3862 169.662C65.5113 169.616 65.616 169.553 65.7002 169.472C65.7853 169.388 65.8438 169.292 65.8758 169.185C65.9077 169.078 65.8987 169.007 65.8486 168.973C65.7986 168.939 65.711 168.945 65.5859 168.992L65.1056 169.169L64.9058 169.84ZM65.0971 170.779C65.2247 170.732 65.3326 170.665 65.421 170.578C65.5118 170.49 65.5739 170.39 65.6074 170.277C65.6416 170.162 65.6308 170.086 65.5747 170.05C65.5195 170.011 65.428 170.016 65.3004 170.063L64.7825 170.254L64.568 170.974L65.0971 170.779ZM67.298 168.241C67.2054 168.275 67.1366 168.274 67.0916 168.238C67.0498 168.199 67.0422 168.135 67.0689 168.045C67.0955 167.956 67.1476 167.871 67.2251 167.79C67.306 167.705 67.3926 167.646 67.4852 167.612C67.5778 167.578 67.645 167.58 67.6867 167.619C67.7318 167.655 67.741 167.718 67.7144 167.807C67.6877 167.897 67.634 167.983 67.5532 168.068C67.4756 168.149 67.3906 168.206 67.298 168.241ZM67.4816 168.398L66.8493 170.522L66.3239 170.716L66.9562 168.592L67.4816 168.398ZM67.98 169.712L68.9069 169.37L68.7757 169.811L67.252 170.373L67.381 169.94L68.6613 168.355L67.7569 168.689L67.8881 168.248L69.3967 167.692L69.2678 168.125L67.98 169.712ZM69.3658 168.641C69.4297 168.427 69.5277 168.221 69.6597 168.024C69.7942 167.827 69.9474 167.657 70.1191 167.514C70.2908 167.371 70.4655 167.266 70.6432 167.201C70.7783 167.151 70.898 167.134 71.0023 167.15C71.1074 167.164 71.1814 167.207 71.2243 167.28L71.5244 166.272L72.0573 166.075L71.2127 168.912L70.6798 169.109L70.7734 168.794C70.6771 168.923 70.5607 169.041 70.4241 169.148C70.2875 169.256 70.1416 169.338 69.9865 169.395C69.8114 169.46 69.665 169.473 69.5473 169.434C69.4295 169.396 69.3529 169.309 69.3173 169.175C69.2849 169.036 69.3011 168.859 69.3658 168.641ZM70.9997 168.045C71.0385 167.915 71.0466 167.813 71.024 167.74C71.0021 167.663 70.9558 167.617 70.8852 167.6C70.8154 167.58 70.7317 167.588 70.6341 167.624C70.5365 167.66 70.4392 167.718 70.3422 167.797C70.2452 167.876 70.1564 167.972 70.0757 168.086C69.9982 168.196 69.9405 168.316 69.9024 168.443C69.8644 168.571 69.8559 168.674 69.8771 168.753C69.9014 168.828 69.9473 168.876 70.0146 168.897C70.0845 168.917 70.1669 168.909 70.262 168.874C70.3596 168.838 70.4581 168.78 70.5577 168.7C70.6579 168.617 70.7468 168.521 70.8242 168.41C70.9024 168.297 70.9609 168.176 70.9997 168.045ZM71.9092 167.703C71.9731 167.488 72.0711 167.283 72.2031 167.086C72.3376 166.889 72.4895 166.719 72.6587 166.577C72.8305 166.434 73.0052 166.33 73.1828 166.264C73.3379 166.207 73.4635 166.189 73.5596 166.21C73.6581 166.231 73.728 166.277 73.7691 166.348L73.8593 166.045L74.3884 165.85L73.7561 167.974L73.2269 168.169L73.3194 167.859C73.2222 167.983 73.1036 168.101 72.9637 168.212C72.8271 168.319 72.6813 168.401 72.5261 168.458C72.351 168.523 72.2046 168.536 72.0869 168.497C71.9717 168.458 71.8963 168.371 71.8607 168.236C71.8283 168.098 71.8445 167.92 71.9092 167.703ZM73.5431 167.107C73.5819 166.977 73.59 166.875 73.5673 166.801C73.5455 166.725 73.4992 166.679 73.4286 166.661C73.3588 166.642 73.2751 166.65 73.1775 166.686C73.0799 166.722 72.9826 166.779 72.8856 166.858C72.7886 166.937 72.6997 167.034 72.619 167.148C72.5416 167.258 72.4839 167.377 72.4458 167.505C72.4078 167.633 72.3993 167.736 72.4204 167.815C72.4448 167.89 72.4907 167.938 72.558 167.959C72.6279 167.978 72.7103 167.971 72.8054 167.936C72.903 167.9 73.0015 167.842 73.101 167.762C73.2013 167.679 73.2902 167.583 73.3676 167.472C73.4458 167.359 73.5043 167.237 73.5431 167.107ZM78.133 163.977L77.3363 166.653L76.8109 166.847L77.1499 165.708L76.0278 166.122L75.6888 167.261L75.1634 167.455L75.9601 164.779L76.4855 164.585L76.1579 165.685L77.28 165.271L77.6076 164.171L78.133 163.977ZM78.0367 165.443C78.1007 165.228 78.1986 165.022 78.3307 164.826C78.4652 164.628 78.6171 164.458 78.7863 164.316C78.958 164.173 79.1327 164.069 79.3104 164.003C79.4655 163.946 79.5911 163.928 79.6871 163.95C79.7857 163.97 79.8555 164.016 79.8967 164.087L79.9868 163.785L80.516 163.589L79.8836 165.713L79.3545 165.908L79.4469 165.598C79.3497 165.723 79.2312 165.84 79.0913 165.951C78.9547 166.058 78.8088 166.14 78.6537 166.198C78.4786 166.262 78.3322 166.275 78.2144 166.237C78.0992 166.198 78.0238 166.11 77.9882 165.976C77.9559 165.837 77.9721 165.66 78.0367 165.443ZM79.6707 164.847C79.7095 164.716 79.7176 164.614 79.6949 164.541C79.673 164.465 79.6268 164.418 79.5562 164.401C79.4863 164.381 79.4026 164.389 79.3051 164.425C79.2075 164.461 79.1102 164.519 79.0132 164.598C78.9162 164.677 78.8273 164.773 78.7466 164.887C78.6692 164.998 78.6114 165.117 78.5734 165.245C78.5353 165.372 78.5269 165.476 78.548 165.554C78.5724 165.629 78.6182 165.677 78.6856 165.698C78.7554 165.718 78.8379 165.71 78.933 165.675C79.0305 165.639 79.1291 165.581 79.2286 165.501C79.3289 165.419 79.4177 165.322 79.4952 165.212C79.5734 165.099 79.6319 164.977 79.6707 164.847ZM83.6201 162.417C83.8753 162.323 84.0565 162.328 84.1637 162.431C84.2741 162.532 84.2867 162.725 84.2015 163.011L83.8305 164.257L83.3052 164.451L83.6544 163.278C83.7039 163.112 83.7003 163 83.6436 162.944C83.5877 162.885 83.4884 162.882 83.3458 162.934C83.2032 162.987 83.076 163.074 82.9643 163.195C82.8559 163.312 82.777 163.454 82.7275 163.62L82.3782 164.793L81.8528 164.987L82.2021 163.814C82.2516 163.648 82.248 163.536 82.1913 163.48C82.1353 163.421 82.0361 163.418 81.8935 163.47C81.7484 163.524 81.62 163.611 81.5083 163.732C81.3998 163.849 81.3209 163.991 81.2714 164.157L80.9221 165.33L80.3968 165.524L81.0291 163.4L81.5545 163.206L81.478 163.463C81.5722 163.349 81.6794 163.247 81.7997 163.157C81.9225 163.066 82.0477 162.997 82.1753 162.95C82.3379 162.89 82.4724 162.872 82.5787 162.897C82.6857 162.919 82.7549 162.982 82.7861 163.086C82.8902 162.939 83.0171 162.804 83.1667 162.683C83.3189 162.561 83.47 162.472 83.6201 162.417ZM87.5525 160.966C87.8077 160.872 87.9889 160.877 88.096 160.981C88.2065 161.081 88.2191 161.274 88.1338 161.561L87.7629 162.806L87.2375 163L87.5868 161.827C87.6362 161.661 87.6326 161.55 87.5759 161.493C87.52 161.434 87.4207 161.431 87.2781 161.484C87.1355 161.536 87.0084 161.623 86.8967 161.744C86.7882 161.861 86.7093 162.003 86.6598 162.169L86.3106 163.342L85.7852 163.536L86.1344 162.363C86.1839 162.197 86.1803 162.086 86.1236 162.029C86.0677 161.97 85.9684 161.967 85.8258 162.02C85.6807 162.073 85.5523 162.16 85.4406 162.281C85.3322 162.398 85.2532 162.54 85.2038 162.706L84.8545 163.879L84.3291 164.073L84.9614 161.949L85.4868 161.756L85.4104 162.012C85.5045 161.898 85.6118 161.796 85.7321 161.706C85.8549 161.615 85.9801 161.546 86.1077 161.499C86.2703 161.439 86.4047 161.421 86.511 161.446C86.6181 161.468 86.6872 161.531 86.7185 161.636C86.8225 161.488 86.9494 161.354 87.0991 161.232C87.2512 161.11 87.4024 161.022 87.5525 160.966ZM88.4448 161.603C88.5087 161.388 88.6067 161.182 88.7387 160.986C88.8732 160.788 89.0251 160.619 89.1944 160.477C89.3661 160.334 89.5408 160.229 89.7184 160.164C89.8735 160.107 89.9991 160.089 90.0952 160.11C90.1937 160.131 90.2636 160.176 90.3047 160.248L90.3949 159.945L90.924 159.75L90.2917 161.874L89.7626 162.069L89.855 161.758C89.7578 161.883 89.6392 162 89.4994 162.111C89.3627 162.219 89.2169 162.301 89.0618 162.358C88.8866 162.423 88.7402 162.436 88.6225 162.397C88.5073 162.358 88.4319 162.271 88.3963 162.136C88.3639 161.998 88.3801 161.82 88.4448 161.603ZM90.0787 161.007C90.1175 160.876 90.1256 160.775 90.103 160.701C90.0811 160.625 90.0348 160.578 89.9642 160.561C89.8944 160.541 89.8107 160.549 89.7131 160.585C89.6155 160.621 89.5183 160.679 89.4212 160.758C89.3242 160.837 89.2354 160.933 89.1547 161.047C89.0772 161.158 89.0195 161.277 88.9814 161.405C88.9434 161.533 88.9349 161.636 88.9561 161.714C88.9804 161.79 89.0263 161.838 89.0936 161.858C89.1635 161.878 89.2459 161.87 89.341 161.835C89.4386 161.799 89.5371 161.741 89.6367 161.661C89.7369 161.579 89.8258 161.482 89.9032 161.372C89.9814 161.259 90.0399 161.137 90.0787 161.007ZM91.5901 161.425C91.42 161.488 91.2765 161.514 91.1597 161.502C91.0436 161.488 90.9615 161.442 90.9134 161.364C90.8678 161.286 90.8607 161.182 90.892 161.055L91.4211 160.86C91.4068 160.938 91.4254 160.991 91.477 161.02C91.531 161.048 91.6094 161.043 91.7119 161.005C91.812 160.968 91.8957 160.919 91.9629 160.858C92.0326 160.796 92.077 160.733 92.096 160.669C92.1165 160.6 92.0967 160.562 92.0366 160.554C91.9797 160.543 91.8823 160.545 91.7443 160.56C91.6006 160.578 91.4848 160.586 91.3969 160.582C91.3115 160.577 91.2451 160.546 91.1977 160.488C91.1527 160.43 91.1516 160.329 91.1942 160.186C91.2292 160.068 91.2937 159.949 91.3876 159.828C91.4841 159.706 91.602 159.594 91.7413 159.493C91.8831 159.39 92.0379 159.308 92.2055 159.246C92.4532 159.155 92.6318 159.146 92.7414 159.219C92.8517 159.29 92.8824 159.43 92.8335 159.639L92.3306 159.825C92.3482 159.743 92.333 159.689 92.2849 159.664C92.2401 159.635 92.1664 159.639 92.0638 159.677C91.9687 159.712 91.8896 159.757 91.8264 159.813C91.7657 159.867 91.7259 159.926 91.7068 159.99C91.6855 160.061 91.7042 160.103 91.7628 160.116C91.8222 160.126 91.92 160.123 92.0562 160.107C92.1949 160.09 92.307 160.084 92.3924 160.088C92.4777 160.093 92.5425 160.126 92.5867 160.187C92.6342 160.245 92.6382 160.344 92.5989 160.483C92.5623 160.606 92.4958 160.728 92.3994 160.85C92.3054 160.971 92.1875 161.083 92.0457 161.186C91.9071 161.284 91.7553 161.364 91.5901 161.425ZM93.8239 158.455C93.7313 158.489 93.6625 158.488 93.6175 158.452C93.5757 158.413 93.5681 158.349 93.5948 158.259C93.6214 158.17 93.6735 158.085 93.751 158.004C93.8318 157.919 93.9185 157.86 94.0111 157.826C94.1037 157.792 94.1708 157.794 94.2126 157.833C94.2577 157.869 94.2669 157.932 94.2402 158.021C94.2136 158.111 94.1599 158.198 94.0791 158.282C94.0015 158.363 93.9165 158.42 93.8239 158.455ZM94.0075 158.612L93.3752 160.736L92.8498 160.93L93.4821 158.806L94.0075 158.612ZM95.9964 159.793C95.7512 159.883 95.5435 159.908 95.3734 159.866C95.2032 159.824 95.0889 159.722 95.0305 159.559C94.9728 159.394 94.9831 159.179 95.0615 158.916C95.1391 158.655 95.2688 158.399 95.4505 158.148C95.633 157.894 95.8443 157.671 96.0845 157.477C96.3246 157.284 96.5673 157.142 96.8125 157.052C97.0602 156.96 97.2678 156.936 97.4355 156.979C97.6056 157.021 97.7183 157.125 97.7735 157.291C97.8319 157.454 97.8224 157.665 97.7447 157.926C97.6664 158.189 97.5359 158.448 97.3534 158.702C97.1742 158.952 96.9645 159.174 96.7244 159.367C96.4842 159.561 96.2416 159.702 95.9964 159.793ZM96.1391 159.314C96.2967 159.255 96.4462 159.168 96.5876 159.053C96.7297 158.934 96.8547 158.795 96.9626 158.634C97.0705 158.474 97.1511 158.304 97.2043 158.125C97.2576 157.947 97.2703 157.803 97.2423 157.695C97.2151 157.585 97.1521 157.516 97.0533 157.488C96.9545 157.461 96.8263 157.477 96.6687 157.535C96.5111 157.593 96.3603 157.68 96.2164 157.797C96.075 157.913 95.9504 158.051 95.8425 158.212C95.7354 158.369 95.6552 158.538 95.6019 158.717C95.5486 158.896 95.5356 159.04 95.5628 159.151C95.5901 159.261 95.6527 159.332 95.7507 159.361C95.852 159.388 95.9814 159.372 96.1391 159.314ZM98.5203 158.869C98.3502 158.931 98.2067 158.957 98.0898 158.945C97.9738 158.931 97.8917 158.885 97.8436 158.808C97.798 158.729 97.7908 158.626 97.8221 158.498L98.3513 158.303C98.3369 158.381 98.3556 158.435 98.4071 158.463C98.4612 158.491 98.5395 158.486 98.6421 158.448C98.7422 158.411 98.8258 158.362 98.893 158.301C98.9627 158.239 99.0071 158.176 99.0261 158.112C99.0467 158.043 99.0269 158.005 98.9667 157.997C98.9098 157.987 98.8124 157.988 98.6745 158.003C98.5308 158.022 98.415 158.029 98.3271 158.025C98.2417 158.02 98.1753 157.989 98.1278 157.932C98.0829 157.873 98.0817 157.772 98.1243 157.629C98.1593 157.512 98.2238 157.392 98.3178 157.271C98.4142 157.149 98.5321 157.037 98.6715 156.936C98.8133 156.833 98.968 156.751 99.1357 156.69C99.3833 156.598 99.562 156.589 99.6715 156.662C99.7818 156.733 99.8126 156.873 99.7636 157.082L99.2608 157.268C99.2784 157.186 99.2631 157.133 99.215 157.107C99.1702 157.078 99.0965 157.083 98.9939 157.121C98.8989 157.156 98.8197 157.201 98.7566 157.256C98.6959 157.31 98.656 157.369 98.637 157.433C98.6157 157.505 98.6343 157.547 98.693 157.559C98.7524 157.569 98.8502 157.566 98.9864 157.55C99.1251 157.533 99.2371 157.527 99.3225 157.532C99.4079 157.537 99.4727 157.57 99.5169 157.631C99.5643 157.688 99.5684 157.787 99.529 157.927C99.4925 158.049 99.426 158.172 99.3295 158.294C99.2356 158.415 99.1177 158.526 98.9758 158.629C98.8373 158.728 98.6854 158.808 98.5203 158.869ZM100.693 158.067C100.493 158.141 100.326 158.163 100.192 158.132C100.06 158.099 99.9718 158.017 99.9287 157.885C99.8881 157.752 99.9001 157.577 99.9648 157.36C100.029 157.142 100.133 156.934 100.275 156.733C100.419 156.532 100.586 156.357 100.776 156.207C100.966 156.055 101.161 155.942 101.361 155.869C101.561 155.795 101.729 155.774 101.864 155.806C102 155.835 102.089 155.916 102.132 156.048C102.178 156.179 102.169 156.353 102.104 156.571C102.039 156.788 101.933 156.997 101.786 157.2C101.642 157.401 101.473 157.578 101.281 157.731C101.091 157.88 100.895 157.992 100.693 158.067ZM100.832 157.599C100.927 157.564 101.023 157.509 101.119 157.432C101.219 157.352 101.307 157.256 101.386 157.143C101.464 157.03 101.523 156.905 101.563 156.77C101.624 156.568 101.617 156.433 101.544 156.364C101.474 156.292 101.364 156.284 101.214 156.339C101.064 156.395 100.921 156.496 100.786 156.644C100.654 156.788 100.558 156.961 100.498 157.163C100.438 157.365 100.44 157.503 100.505 157.577C100.573 157.647 100.682 157.655 100.832 157.599ZM103.967 154.911C104.214 154.819 104.39 154.826 104.495 154.931C104.601 155.033 104.611 155.227 104.525 155.513L104.155 156.759L103.629 156.953L103.978 155.78C104.029 155.611 104.026 155.497 103.97 155.438C103.915 155.377 103.816 155.372 103.673 155.425C103.528 155.479 103.399 155.567 103.287 155.69C103.178 155.81 103.098 155.955 103.048 156.123L102.698 157.296L102.173 157.49L102.805 155.366L103.331 155.173L103.252 155.437C103.349 155.319 103.46 155.215 103.582 155.124C103.708 155.03 103.837 154.959 103.967 154.911Z" fill="white" fill-opacity="0.48"/>
<path d="M53.8218 193.601L53.0822 196.085C53.0011 196.358 53.0083 196.541 53.1038 196.635C53.2004 196.726 53.3745 196.725 53.6259 196.632C53.8811 196.538 54.0992 196.394 54.2803 196.201C54.4625 196.004 54.5942 195.77 54.6752 195.498L55.4149 193.013L56.2086 192.721L55.4706 195.199C55.3691 195.54 55.2097 195.857 54.9926 196.148C54.7803 196.435 54.5346 196.683 54.2553 196.891C53.9797 197.099 53.6937 197.257 53.3972 197.367C53.1045 197.475 52.8557 197.513 52.6509 197.483C52.4499 197.452 52.3148 197.344 52.2455 197.162C52.1775 196.975 52.1942 196.712 52.2958 196.37L53.0337 193.892L53.8218 193.601ZM56.6924 195.526L58.0828 195.014L57.8859 195.675L55.6004 196.518L55.7939 195.868L57.7143 193.491L56.3577 193.991L56.5546 193.33L58.8175 192.495L58.624 193.145L56.6924 195.526ZM58.9039 193.508C59.0215 193.113 59.2128 192.728 59.4779 192.354C59.7479 191.975 60.0586 191.643 60.4102 191.36C60.7667 191.071 61.1326 190.858 61.5079 190.72C61.9469 190.558 62.2973 190.531 62.5591 190.639C62.8209 190.747 62.9569 190.98 62.9673 191.338L62.061 191.672C62.028 191.514 61.9432 191.417 61.8066 191.382C61.6738 191.346 61.5004 191.367 61.2865 191.446C61.0576 191.531 60.8365 191.662 60.6233 191.839C60.4149 192.012 60.2304 192.216 60.0697 192.453C59.9128 192.688 59.7944 192.94 59.7145 193.209C59.6357 193.473 59.6149 193.689 59.652 193.856C59.694 194.018 59.7866 194.122 59.9299 194.168C60.078 194.209 60.2666 194.187 60.4955 194.103C60.7094 194.024 60.9113 193.907 61.1012 193.751C61.296 193.591 61.467 193.398 61.6141 193.173L62.5204 192.839C62.2669 193.298 61.9408 193.703 61.5421 194.055C61.1483 194.401 60.7299 194.656 60.2871 194.82C59.9118 194.958 59.5979 194.997 59.3453 194.937C59.0976 194.871 58.9317 194.716 58.8478 194.47C58.7676 194.223 58.7863 193.903 58.9039 193.508ZM65.4539 192.202L63.8889 192.779L63.4023 193.64L62.5748 193.945L65.1845 189.404L66.1021 189.066L66.3182 192.564L65.4851 192.871L65.4539 192.202ZM65.4317 191.637L65.3631 190.167L64.2946 192.056L65.4317 191.637ZM68.8728 191.622L68.4716 190.377L68.1001 190.514L67.6344 192.078L66.8463 192.369L68.0414 188.355L69.5162 187.811C69.8202 187.699 70.0626 187.659 70.2434 187.691C70.4253 187.72 70.5409 187.809 70.59 187.958C70.6441 188.101 70.6369 188.288 70.5684 188.518C70.4896 188.783 70.3432 189.05 70.1292 189.32C69.9163 189.587 69.6496 189.815 69.3292 190.005L69.7847 191.285L68.8728 191.622ZM68.2799 189.91L68.9385 189.667C69.1524 189.589 69.3273 189.478 69.4632 189.336C69.6002 189.19 69.6967 189.023 69.7526 188.835C69.8074 188.651 69.7971 188.528 69.7217 188.467C69.6475 188.403 69.5034 188.41 69.2895 188.489L68.6309 188.732L68.2799 189.91ZM73.0211 186.518C73.4339 186.366 73.7715 186.315 74.0339 186.365C74.3 186.413 74.4719 186.56 74.5494 186.804C74.6319 187.043 74.6132 187.364 74.4934 187.767C74.3735 188.169 74.1822 188.554 73.9194 188.92C73.6615 189.282 73.3504 189.603 72.9861 189.884C72.6255 190.164 72.2388 190.38 71.826 190.532L70.4525 191.039L71.6476 187.025L73.0211 186.518ZM72.0016 189.858C72.4144 189.706 72.7676 189.473 73.0613 189.16C73.3549 188.847 73.564 188.481 73.6884 188.064C73.8128 187.646 73.7972 187.361 73.6417 187.211C73.4873 187.056 73.2037 187.055 72.7909 187.207L72.2336 187.413L71.4443 190.064L72.0016 189.858ZM75.6004 188.387L74.4607 190.246L73.9541 190.433L74.8011 188.682L75.6004 188.387ZM81.7124 183.312L80.5173 187.326L79.7292 187.616L80.2377 185.908L78.5546 186.529L78.0461 188.237L77.258 188.528L78.4531 184.514L79.2412 184.223L78.7498 185.874L80.4329 185.253L80.9243 183.603L81.7124 183.312ZM83.2649 182.739L82.5252 185.223C82.4442 185.495 82.4514 185.679 82.5469 185.773C82.6435 185.864 82.8176 185.863 83.069 185.77C83.3242 185.676 83.5423 185.532 83.7234 185.339C83.9056 185.142 84.0373 184.908 84.1183 184.636L84.8579 182.151L85.6516 181.858L84.9137 184.337C84.8121 184.678 84.6528 184.995 84.4357 185.286C84.2234 185.573 83.9776 185.82 83.6983 186.029C83.4228 186.237 83.1368 186.395 82.8403 186.504C82.5476 186.612 82.2988 186.651 82.094 186.621C81.893 186.589 81.7579 186.482 81.6886 186.3C81.6205 186.113 81.6373 185.849 81.7389 185.508L82.4768 183.03L83.2649 182.739ZM90.6969 179.997L89.5018 184.011L88.7137 184.302L89.491 181.691L87.6611 184.69L87.0644 184.91L86.7834 182.69L86.0061 185.301L85.218 185.591L86.4131 181.578L87.3081 181.247L87.6692 183.771L89.8075 180.325L90.6969 179.997ZM92.0928 183.091C91.725 183.227 91.4135 183.263 91.1583 183.2C90.9031 183.138 90.7316 182.984 90.644 182.74C90.5574 182.492 90.5729 182.171 90.6905 181.776C90.8069 181.385 91.0014 181.001 91.274 180.624C91.5478 180.243 91.8647 179.908 92.225 179.618C92.5852 179.328 92.9492 179.115 93.317 178.979C93.6885 178.842 94 178.806 94.2515 178.87C94.5067 178.933 94.6757 179.089 94.7585 179.338C94.8462 179.582 94.8318 179.9 94.7154 180.291C94.5978 180.686 94.4021 181.074 94.1284 181.455C93.8596 181.83 93.545 182.163 93.1848 182.453C92.8246 182.743 92.4606 182.955 92.0928 183.091ZM92.3068 182.372C92.5432 182.285 92.7675 182.154 92.9796 181.981C93.1928 181.803 93.3804 181.594 93.5422 181.353C93.704 181.113 93.8249 180.858 93.9048 180.59C93.9847 180.322 94.0036 180.106 93.9616 179.945C93.9208 179.779 93.8263 179.675 93.6781 179.634C93.53 179.594 93.3377 179.617 93.1012 179.704C92.8648 179.791 92.6387 179.922 92.4228 180.098C92.2108 180.271 92.0238 180.479 91.862 180.719C91.7013 180.956 91.581 181.208 91.5011 181.477C91.4212 181.745 91.4017 181.962 91.4425 182.128C91.4833 182.294 91.5773 182.399 91.7243 182.444C91.8762 182.483 92.0704 182.459 92.3068 182.372ZM96.3171 180.069C96.4129 179.747 96.5599 179.438 96.7579 179.143C96.9597 178.847 97.1894 178.592 97.447 178.377C97.7046 178.163 97.9667 178.006 98.2331 177.908C98.4358 177.833 98.6153 177.808 98.7718 177.832C98.9295 177.852 99.0404 177.917 99.1047 178.027L99.555 176.514L100.354 176.219L99.0874 180.475L98.2881 180.77L98.4285 180.298C98.2841 180.491 98.1094 180.668 97.9045 180.829C97.6996 180.99 97.4808 181.114 97.2481 181.199C96.9855 181.296 96.7658 181.316 96.5893 181.258C96.4127 181.2 96.2977 181.071 96.2443 180.868C96.1958 180.661 96.22 180.394 96.3171 180.069ZM98.7679 179.175C98.8262 178.979 98.8383 178.826 98.8043 178.716C98.7715 178.602 98.7021 178.532 98.5962 178.506C98.4915 178.476 98.3659 178.489 98.2195 178.543C98.0732 178.597 97.9272 178.683 97.7817 178.801C97.6362 178.92 97.5029 179.065 97.3819 179.236C97.2657 179.401 97.1791 179.58 97.122 179.772C97.065 179.963 97.0523 180.118 97.0839 180.236C97.1205 180.349 97.1893 180.421 97.2903 180.452C97.3951 180.481 97.5188 180.47 97.6614 180.417C97.8077 180.363 97.9556 180.276 98.1048 180.156C98.2553 180.033 98.3886 179.888 98.5047 179.722C98.622 179.553 98.7097 179.37 98.7679 179.175ZM100.132 178.661C100.228 178.339 100.375 178.031 100.573 177.736C100.775 177.44 101.003 177.185 101.256 176.972C101.514 176.757 101.776 176.601 102.043 176.503C102.275 176.417 102.464 176.39 102.608 176.422C102.756 176.453 102.86 176.522 102.922 176.629L103.057 176.174L103.851 175.882L102.902 179.067L102.109 179.36L102.247 178.894C102.102 179.081 101.924 179.258 101.714 179.424C101.509 179.585 101.29 179.708 101.058 179.794C100.795 179.891 100.575 179.911 100.399 179.853C100.226 179.794 100.113 179.663 100.059 179.461C100.011 179.254 100.035 178.987 100.132 178.661ZM102.583 177.767C102.641 177.572 102.653 177.419 102.619 177.308C102.587 177.194 102.517 177.124 102.411 177.099C102.307 177.069 102.181 177.081 102.035 177.135C101.888 177.189 101.742 177.275 101.597 177.394C101.451 177.512 101.318 177.657 101.197 177.828C101.081 177.994 100.994 178.173 100.937 178.364C100.88 178.556 100.867 178.711 100.899 178.829C100.936 178.941 101.004 179.013 101.105 179.044C101.21 179.074 101.334 179.062 101.476 179.01C101.623 178.956 101.771 178.869 101.92 178.749C102.07 178.625 102.204 178.481 102.32 178.315C102.437 178.145 102.525 177.963 102.583 177.767ZM108.882 173.288L108.689 173.938L107.642 174.324L106.64 177.688L105.852 177.979L106.854 174.615L105.807 175.001L106 174.351L108.882 173.288ZM111.656 174.359C111.622 174.474 111.584 174.58 111.541 174.677L109.261 175.518C109.212 175.742 109.237 175.893 109.337 175.972C109.437 176.051 109.588 176.053 109.791 175.978C110.084 175.87 110.33 175.665 110.53 175.363L111.38 175.049C111.199 175.389 110.951 175.706 110.637 175.999C110.323 176.289 109.981 176.502 109.609 176.639C109.309 176.75 109.059 176.783 108.859 176.737C108.663 176.686 108.535 176.561 108.474 176.362C108.417 176.161 108.437 175.898 108.534 175.572C108.632 175.242 108.784 174.928 108.989 174.631C109.195 174.333 109.436 174.074 109.712 173.852C109.989 173.631 110.281 173.463 110.589 173.35C110.885 173.24 111.13 173.208 111.324 173.253C111.522 173.296 111.648 173.414 111.704 173.609C111.765 173.798 111.749 174.048 111.656 174.359ZM110.908 174.43C110.966 174.224 110.942 174.086 110.836 174.016C110.731 173.942 110.576 173.943 110.369 174.019C110.174 174.091 109.991 174.214 109.819 174.386C109.652 174.554 109.522 174.75 109.428 174.976L110.908 174.43ZM113.583 175.127L112.929 174.16L112.525 175.518L111.737 175.808L113.004 171.553L113.792 171.262L113.071 173.683L114.52 171.945L115.545 171.567L113.695 173.673L114.607 174.749L113.583 175.127ZM116.485 170.883C116.346 170.934 116.243 170.933 116.175 170.879C116.113 170.82 116.101 170.724 116.141 170.59C116.181 170.456 116.259 170.328 116.376 170.206C116.497 170.08 116.627 169.991 116.766 169.94C116.905 169.888 117.006 169.892 117.068 169.951C117.136 170.005 117.15 170.098 117.11 170.233C117.07 170.367 116.989 170.497 116.868 170.624C116.752 170.745 116.624 170.831 116.485 170.883ZM116.761 171.119L115.812 174.305L115.024 174.595L115.972 171.41L116.761 171.119ZM119.281 170.148C119.653 170.011 119.917 170.021 120.074 170.178C120.232 170.331 120.247 170.623 120.119 171.052L119.563 172.921L118.775 173.212L119.299 171.452C119.374 171.199 119.37 171.028 119.286 170.94C119.203 170.847 119.055 170.841 118.841 170.92C118.623 171 118.43 171.133 118.261 171.318C118.098 171.498 117.978 171.714 117.903 171.967L117.379 173.727L116.591 174.017L117.539 170.832L118.327 170.541L118.209 170.938C118.355 170.761 118.52 170.604 118.705 170.468C118.894 170.327 119.086 170.22 119.281 170.148Z" fill="white" fill-opacity="0.81"/>
<path d="M219.74 132.893C219.676 133.108 219.565 133.328 219.408 133.553C219.254 133.777 219.054 133.986 218.805 134.18C218.561 134.372 218.277 134.528 217.955 134.647L217.296 134.89L216.837 136.431L216.049 136.722L217.244 132.708L218.691 132.174C218.995 132.062 219.238 132.02 219.42 132.049C219.602 132.077 219.717 132.166 219.766 132.315C219.819 132.463 219.81 132.655 219.74 132.893ZM218.114 134.01C218.332 133.929 218.508 133.82 218.643 133.682C218.779 133.539 218.874 133.376 218.929 133.192C219.045 132.801 218.89 132.685 218.462 132.842L217.837 133.073L217.49 134.24L218.114 134.01ZM219.749 133.929C219.845 133.607 219.992 133.298 220.19 133.003C220.392 132.707 220.619 132.453 220.873 132.239C221.131 132.025 221.393 131.869 221.659 131.77C221.892 131.684 222.08 131.658 222.224 131.69C222.372 131.721 222.477 131.789 222.539 131.896L222.674 131.442L223.468 131.149L222.519 134.335L221.726 134.628L221.864 134.162C221.718 134.349 221.541 134.525 221.331 134.692C221.126 134.852 220.907 134.976 220.674 135.062C220.412 135.159 220.192 135.178 220.015 135.12C219.843 135.061 219.73 134.931 219.676 134.729C219.628 134.521 219.652 134.255 219.749 133.929ZM222.2 133.035C222.258 132.839 222.27 132.686 222.236 132.576C222.203 132.462 222.134 132.392 222.028 132.366C221.923 132.337 221.798 132.349 221.651 132.403C221.505 132.457 221.359 132.543 221.214 132.662C221.068 132.78 220.935 132.925 220.814 133.096C220.698 133.261 220.611 133.44 220.554 133.632C220.497 133.824 220.484 133.978 220.516 134.096C220.552 134.209 220.621 134.281 220.722 134.312C220.827 134.342 220.951 134.33 221.093 134.277C221.24 134.223 221.387 134.137 221.537 134.017C221.687 133.893 221.82 133.748 221.937 133.582C222.054 133.413 222.142 133.23 222.2 133.035ZM227.221 129.765L223.893 135.169L223.054 135.479L224.202 133.642L223.877 130.998L224.761 130.672L224.903 132.601L226.382 130.074L227.221 129.765Z" fill="#000080"/>
<path d="M87.1644 105.308C87.3197 104.787 87.5765 104.276 87.9349 103.775C88.2984 103.272 88.717 102.831 89.1908 102.452C89.6711 102.065 90.1539 101.783 90.6393 101.603C91.1947 101.399 91.6457 101.357 91.9923 101.48C92.3455 101.595 92.5435 101.872 92.5865 102.312L91.5582 102.691C91.5068 102.46 91.3816 102.319 91.1825 102.27C90.9834 102.22 90.7262 102.254 90.411 102.37C90.0658 102.498 89.7344 102.69 89.4171 102.948C89.0997 103.207 88.8193 103.513 88.5759 103.866C88.3375 104.218 88.1598 104.591 88.0426 104.984C87.9254 105.378 87.8977 105.695 87.9596 105.936C88.0264 106.176 88.1706 106.327 88.3921 106.391C88.6151 106.45 88.8992 106.416 89.2445 106.288C89.5597 106.172 89.858 106 90.1392 105.774C90.4205 105.547 90.6705 105.268 90.8893 104.937L91.9176 104.558C91.5703 105.141 91.1379 105.651 90.6204 106.088C90.1079 106.523 89.5739 106.842 89.0185 107.047C88.5281 107.228 88.1145 107.278 87.7777 107.198C87.4424 107.112 87.2163 106.907 87.0994 106.581C86.9875 106.254 87.0092 105.83 87.1644 105.308ZM95.927 103.489L93.7429 104.294L93.0434 105.521L92.1503 105.851L95.608 99.825L96.5987 99.4595L96.8788 104.107L95.9781 104.439L95.927 103.489ZM95.8991 102.864L95.7883 100.7L94.1953 103.493L95.8991 102.864ZM100.401 102.807L99.8346 101.119L99.1816 101.36L98.547 103.491L97.6913 103.807L99.2779 98.478L101.079 97.8134C101.48 97.6657 101.796 97.6127 102.029 97.6543C102.266 97.694 102.417 97.8091 102.48 97.9995C102.549 98.1881 102.539 98.4306 102.451 98.7271C102.347 99.0747 102.153 99.4285 101.867 99.7886C101.589 100.142 101.229 100.445 100.788 100.699L101.422 102.431L100.401 102.807ZM99.3893 100.662L100.335 100.313C100.655 100.195 100.92 100.024 101.129 99.8018C101.342 99.5773 101.49 99.3271 101.573 99.051C101.655 98.775 101.639 98.5899 101.524 98.4956C101.411 98.3962 101.192 98.4065 100.867 98.5265L99.9212 98.8754L99.3893 100.662ZM105.724 96.0999C106.279 95.895 106.732 95.8258 107.082 95.8924C107.438 95.952 107.668 96.1448 107.772 96.4706C107.881 96.7895 107.856 97.2199 107.694 97.7617C107.533 98.3036 107.278 98.8163 106.929 99.2999C106.585 99.7817 106.171 100.207 105.687 100.577C105.209 100.94 104.693 101.224 104.137 101.429L102.434 102.057L104.02 96.7284L105.724 96.0999ZM104.35 100.716C104.96 100.49 105.478 100.149 105.904 99.6918C106.33 99.2345 106.634 98.6991 106.816 98.0857C107 97.4672 106.982 97.0442 106.76 96.8166C106.538 96.5889 106.122 96.5878 105.512 96.813L104.663 97.1258L103.502 101.029L104.35 100.716Z" fill="#000F9E"/>
<circle cx="6.15451" cy="6.15451" r="6.15451" transform="matrix(0.938191 -0.346117 -0.285354 0.958422 235.512 40.4531)" fill="#000F9E"/>
<circle cx="7.03373" cy="7.03373" r="6.53373" transform="matrix(0.938191 -0.346117 -0.285354 0.958422 243.186 36.875)" fill="#F5FBFF" stroke="#6B8DD7"/>
</g>
</g>
<defs>
<filter id="filter0_d_1_49" x="0.686035" y="0.0825195" width="328.367" height="292.477" filterUnits="userSpaceOnUse" color-interpolation-filters="sRGB">
<feFlood flood-opacity="0" result="BackgroundImageFix"/>
<feColorMatrix in="SourceAlpha" type="matrix" values="0 0 0 0 0 0 0 0 0 0 0 0 0 0 0 0 0 0 127 0" result="hardAlpha"/>
<feOffset dx="10" dy="30"/>
<feGaussianBlur stdDeviation="20.5"/>
<feComposite in2="hardAlpha" operator="out"/>
<feColorMatrix type="matrix" values="0 0 0 0 0 0 0 0 0 0 0 0 0 0 0.54902 0 0 0 0.64 0"/>
<feBlend mode="normal" in2="BackgroundImageFix" result="effect1_dropShadow_1_49"/>
<feBlend mode="normal" in="SourceGraphic" in2="effect1_dropShadow_1_49" result="shape"/>
</filter>
<filter id="filter1_b_1_49" x="-2598.31" y="-2618.92" width="5506.37" height="5470.48" filterUnits="userSpaceOnUse" color-interpolation-filters="sRGB">
<feFlood flood-opacity="0" result="BackgroundImageFix"/>
<feGaussianBlur in="BackgroundImageFix" stdDeviation="1315"/>
<feComposite in2="SourceAlpha" operator="in" result="effect1_backgroundBlur_1_49"/>
<feBlend mode="normal" in="SourceGraphic" in2="effect1_backgroundBlur_1_49" result="shape"/>
</filter>
<filter id="filter2_b_1_49" x="4.68604" y="-15.9175" width="300.367" height="264.477" filterUnits="userSpaceOnUse" color-interpolation-filters="sRGB">
<feFlood flood-opacity="0" result="BackgroundImageFix"/>
<feGaussianBlur in="BackgroundImageFix" stdDeviation="13.5"/>
<feComposite in2="SourceAlpha" operator="in" result="effect1_backgroundBlur_1_49"/>
<feBlend mode="normal" in="SourceGraphic" in2="effect1_backgroundBlur_1_49" result="shape"/>
</filter>
<linearGradient id="paint0_linear_1_49" x1="-14.5071" y1="-26.8161" x2="291.021" y2="188.152" gradientUnits="userSpaceOnUse">
<stop stop-color="#C9D8F5"/>
<stop offset="1" stop-color="#2559C3"/>
</linearGradient>
</defs>
</svg>
